<svg xmlns="http://www.w3.org/2000/svg" viewBox="0 0 220 280" width="22" height="28">
  <path fill="#000000" d="M168.5,8.2c-4.3-2.9-9.8-4.8-16.3-5.6c-6.5-0.8-13.2-0.5-20.1,0.9c-6.9,1.4-13.4,3.8-19.5,7.2
    c-6.1,3.4-11.1,7.6-15,12.5c-3.9,4.9-6.3,10.4-7.2,16.5c-0.9,6.1-0.1,12.5,2.4,19.2l-45.6,91.2c-2.5-6.7-6.2-12.1-11.1-16.2
    c-4.9-4.1-10.5-6.9-16.8-8.4c-6.3-1.5-12.8-1.7-19.5-0.6c-6.7,1.1-12.8,3.4-18.3,6.9l10.8,21.6c3.5-2.2,7.3-3.7,11.4-4.5
    c4.1-0.8,8.1-0.7,12,0.3c3.9,1,7.5,2.8,10.8,5.4c3.3,2.6,5.9,6,7.8,10.2l-32.4,64.8l21.6,10.8l32.4-64.8c2.5,6.7,6.2,12.1,11.1,16.2
    c4.9,4.1,10.5,6.9,16.8,8.4c6.3,1.5,12.8,1.7,19.5,0.6c6.7-1.1,12.8-3.4,18.3-6.9l-10.8-21.6c-3.5,2.2-7.3,3.7-11.4,4.5
    c-4.1,0.8-8.1,0.7-12-0.3c-3.9-1-7.5-2.8-10.8-5.4c-3.3-2.6-5.9-6-7.8-10.2l45.6-91.2c2.5,6.7,6.2,12.1,11.1,16.2
    c4.9,4.1,10.5,6.9,16.8,8.4c6.3,1.5,12.8,1.7,19.5,0.6c6.7-1.1,12.8-3.4,18.3-6.9l-10.8-21.6c-3.5,2.2-7.3,3.7-11.4,4.5
    c-4.1,0.8-8.1,0.7-12-0.3c-3.9-1-7.5-2.8-10.8-5.4c-3.3-2.6-5.9-6-7.8-10.2l32.4-64.8L168.5,8.2z"/>
</svg>
