<svg width="1024" height="1024" viewBox="0 0 1024 1024" fill="none" xmlns="http://www.w3.org/2000/svg">
<path d="M164.606 67.4455C125.87 104.277 95.742 136.326 98.1331 138.718C100.046 140.631 112.958 136.804 126.826 130.586L152.172 118.628L203.82 127.716C232.036 132.499 264.555 137.761 276.032 139.196C287.988 140.631 297.552 142.544 297.552 143.979C297.552 144.936 292.292 156.416 285.597 169.81L273.163 193.248L273.641 445.332C274.119 741.901 279.38 714.636 204.777 788.299C178.475 814.13 156.955 837.09 156.955 839.481C156.955 841.873 176.562 843.787 200.951 843.787C248.295 843.787 312.377 860.528 363.547 886.359C377.415 893.534 391.762 899.274 395.588 898.795C398.935 898.795 408.022 891.62 415.673 882.532C423.325 873.922 446.758 847.135 468.278 823.696C525.186 761.034 534.751 749.076 530.925 743.336C529.012 739.987 520.882 744.292 509.883 753.381C496.015 765.818 489.32 768.688 478.799 765.818C471.625 763.904 465.408 761.991 464.452 761.034C463.496 760.556 463.496 694.545 464.452 614.663L465.887 469.727L503.666 532.389C524.708 566.829 560.575 626.622 583.53 665.367C647.611 773.471 674.87 812.216 721.736 862.442C764.298 908.84 764.776 909.319 764.776 936.106C764.776 955.239 761.907 966.719 754.733 975.329C745.169 987.766 745.169 987.766 758.081 1006.42C772.428 1026.51 782.47 1029.38 786.774 1015.03C788.687 1010.25 794.426 1001.64 799.686 996.854C809.729 987.766 809.729 987.766 799.208 976.286C790.6 967.197 788.209 959.066 789.166 937.062C789.166 921.755 792.513 904.057 795.861 897.839C805.425 880.618 838.901 839.481 870.463 805.998C908.721 765.339 924.981 745.727 924.981 739.031C925.459 731.856 916.851 731.377 912.547 738.552C911.112 740.944 902.983 746.684 894.853 750.989C883.376 757.208 878.115 757.208 866.638 752.424C848.465 744.771 819.294 723.246 810.686 712.244C807.338 707.46 801.599 700.764 797.774 696.937C789.644 688.805 745.647 618.968 724.127 580.223C694.477 526.171 689.217 517.082 659.567 470.684C623.222 412.805 563.444 312.354 563.444 308.049C563.444 306.614 597.876 270.26 639.96 228.167C711.693 154.981 717.432 150.676 735.126 150.676C756.168 150.676 760.95 146.849 834.119 77.969C854.204 58.3571 873.333 38.7453 875.724 33.962C880.506 25.3519 879.55 25.3519 862.334 32.5269C829.815 45.9204 796.339 41.137 742.778 14.3501C726.518 6.69674 709.302 2.51159e-05 704.998 2.51159e-05C700.216 2.51159e-05 683.956 12.9151 669.132 28.2219C653.828 44.007 631.83 64.5755 619.875 74.1423C607.919 84.1873 598.833 95.1891 599.789 99.4941C600.746 103.321 615.092 111.453 631.352 117.671C648.09 123.889 661.48 131.543 661.48 133.934C661.48 138.718 608.875 199.945 523.752 293.699C508.449 310.441 489.798 331.488 482.624 340.098C474.973 349.186 467.321 356.361 465.408 356.361C463.496 356.361 463.496 287.002 465.408 202.337L468.756 47.8337L483.581 29.1786C499.841 8.61009 496.971 1.91337 474.973 10.5234C453.931 18.6552 331.506 16.7418 289.901 7.65342C270.772 3.34838 250.208 2.51159e-05 244.948 2.51159e-05C238.731 2.51159e-05 206.69 26.7869 164.606 67.4455ZM448.192 242.995C448.192 353.491 446.758 381.713 441.497 386.018C435.759 390.801 433.846 388.888 431.455 376.451C425.716 347.273 436.715 105.234 443.888 105.234C446.28 105.234 448.192 164.548 448.192 242.995ZM445.801 508.472C444.845 545.304 443.888 614.185 443.41 661.54C443.41 740.944 442.454 748.597 434.324 748.597C421.89 748.597 347.766 722.289 347.766 717.984C347.766 715.592 366.416 696.937 388.893 675.89L430.498 638.102L430.976 545.783C431.455 495.079 433.367 450.593 435.28 447.723C444.845 432.417 447.236 447.723 445.801 508.472Z" fill="black"/>
</svg>
